# xmcd
#
# Track frame offsets: 
#        150
#        7360
#        14342
#        21572
#        28745
#        35690
#        42610
#        49482
#        56280
#        63210
#        70407
#        77447
#        84582
#        91657
#        98832
#        106120
#        113312
#        120362
#        127512
#        134760
#        141782
#        148670
#        155682
#        162820
#        169385
#        176635
#        183720
#        190847
#        197977
#        204875
#        212147
#        219605
#        226777
#        233685
#        240902
#        248125
#        255042
#        262085
#        268997
#        276207
#        283020
#        290337
#        297505
#        304695
#        311735
#        319072
#        326307
#        333465
#        340635
#        348097
#
# Disc length: 4741 seconds
#
# Revision: 1
# Processed by: cddbd v1.5.2PL0 Copyright (c) Steve Scherf et al.
# Submitted via: ExactAudioCopy v1.0b4
#
DISCID=de128332
DTITLE=Various Artist - BEST BLUE NOTE 100 VOLUME2 Disc 1
DYEAR=1900
DGENRE=Jazz
TTITLE0=HORACE SILVER - FILTHY McNASTY
TTITLE1=JACKIE McLEAN - DEMON'S DANCE
TTITLE2=CHARLIE ROUSE - SAMBA DE ORFEU
TTITLE3=THE THREE SOUNDS - BESAME MUCHO
TTITLE4=JACKIE McLEAN - APPOINTMENT IN GHANA
TTITLE5=LOU DONALDSON with THE THREE SOUNDS - JUST FRIENDS
TTITLE6=ART BLAKEY - THE MYSTERY OF LOVE
TTITLE7=CURTIS FULLER - OSCALYPSO
TTITLE8=FRED JACKSON - HOOTIN' 'N TOOTIN'
TTITLE9=GRANT GREEN - LULLABY OF THE LEAVES
TTITLE10=McCOY TYNER - PASSION DANCE
TTITLE11=J.J.JOHNSON - OLD DEVIL MOON
TTITLE12=JOHNNY GRIFFIN - IT'S ALRIGHT WITH ME
TTITLE13=DUKE PEARSON - LIKE SOMEONE IN LOVE
TTITLE14=JACKIE McLEAN - MARILYN'S DILEMMA
TTITLE15=DIZZY REECE - THE RAKE
TTITLE16=GRANT GREEN - EXODUS
TTITLE17=LOU DONALDSON - SOFTLY AS IN A MORNING SUNRISE
TTITLE18=CURTIS FULLER - ALGONQUIN
TTITLE19=JIMMY SMITH - JUMPIN' THE BLUES
TTITLE20=THAD JONES - LITTLE GIRL BLUE
TTITLE21=BENNIE GREEN - I LOVE YOU
TTITLE22=STANLEY TURRENTINE - BLUE RIFF
TTITLE23=CURTIS FULLER - LITTLE MESSENGER
TTITLE24=ART BLAKEY and THE JAZZ MESSENGERS - AVILA AND TEQUILA
TTITLE25=KENNY BURRELL - BIRKS' WORKS
TTITLE26=JIMMY SMITH - J.O.S.
TTITLE27=JOHNNY GRIFFIN - ALL THE THINGS YOU ARE
TTITLE28=HORACE SILVER - FINGER POPPIN'
TTITLE29=FREDDIE REDO - BLUES-BLUES-BLUES
TTITLE30=DONALD BYRD - MY GIRL SHIRL
TTITLE31=JIMMY SMITH - GRACIE
TTITLE32=KENNY DORHAM - UNA MAS
TTITLE33=HANK MOBLEY - ULTRAMARINE
TTITLE34=JIMMY SMITH - THE WAY YOU LOOK TONIGHT
TTITLE35=ART BLAKEY - THE FEAST
TTITLE36=JIMMY SMITH - JUDO MAMBO
TTITLE37=THE THREE SOUNDS - TENDERLY
TTITLE38=HANK MOBLEY - SPEAK LOW
TTITLE39=BENNY GREEN - THE SHOUTER
TTITLE40=LOE DONALDSON - THERE WILL NEVER BE ANOTHER YOU
TTITLE41=JIMMY SMITH - WHEN JOHNNY COMES MARCHING HOME
TTITLE42=LARRY YOUNG - TYRONE
TTITLE43=LOU DONALDSON - SPUTNIK
TTITLE44=DRIFF JORDAN - ST. JOHN
TTITLE45=LOU DONALDSON - LOU'S BLUES
TTITLE46=SONNY RED - BLUESVILLE
TTITLE47=GIL MELLE - THE SET BREAK
TTITLE48=GRANT GREEN - DJANGO
TTITLE49=LOU DONALDSON - IF I LOVE AGAIN
EXTD=
EXTT0=
EXTT1=
EXTT2=
EXTT3=
EXTT4=
EXTT5=
EXTT6=
EXTT7=
EXTT8=
EXTT9=
EXTT10=
EXTT11=
EXTT12=
EXTT13=
EXTT14=
EXTT15=
EXTT16=
EXTT17=
EXTT18=
EXTT19=
EXTT20=
EXTT21=
EXTT22=
EXTT23=
EXTT24=
EXTT25=
EXTT26=
EXTT27=
EXTT28=
EXTT29=
EXTT30=
EXTT31=
EXTT32=
EXTT33=
EXTT34=
EXTT35=
EXTT36=
EXTT37=
EXTT38=
EXTT39=
EXTT40=
EXTT41=
EXTT42=
EXTT43=
EXTT44=
EXTT45=
EXTT46=
EXTT47=
EXTT48=
EXTT49=
PLAYORDER=
